<svg viewBox="0 0 111.58 111.28" xmlns="http://www.w3.org/2000/svg">
  <path
    d="m92.62 52.17a36.68 36.68 0 0 0 -8.74-20.17l-.58-.65a36.6 36.6 0 1 0 -1.21 50.45c.6-.6 1.16-1.21 1.71-1.84a36.68 36.68 0 0 0 8.71-19.36c0-.31.07-.61.1-.92s0-.4.06-.6q.14-1.55.14-3.14a36.88 36.88 0 0 0 -.19-3.77zm-36.53-24.94a7.34 7.34 0 1 1 -7.36 7.32 7.24 7.24 0 0 1 7.36-7.32zm-28 22.23a7.32 7.32 0 1 1 7.34 7.36 7.24 7.24 0 0 1 -7.35-7.35zm15.44 30.73a7.34 7.34 0 1 1 7.3-7.27 7.28 7.28 0 0 1 -7.3 7.27zm12.57-18.68a5.47 5.47 0 0 1 -5.48-5.38 5.44 5.44 0 0 1 10.86-.13 5.52 5.52 0 0 1 -5.38 5.51zm12.18 18.68a7.34 7.34 0 1 1 7.29-7.27 7.29 7.29 0 0 1 -7.29 7.27zm8.6-23.36a7.34 7.34 0 1 1 7.3-7.27 7.28 7.28 0 0 1 -7.3 7.26z"
    fill="#999" />
  <g fill="#555">
    <path
      d="m111.12 55.92a54.65 54.65 0 0 1 -12.89 35.34l-8.61-8.61a42.79 42.79 0 0 0 .28-53.11l8.62-8.62a54.69 54.69 0 0 1 12.6 35z" />
    <path d="m91.55 13.89-8.61 8.61a42.8 42.8 0 0 0 -53.11-.28l-8.63-8.62a54.9 54.9 0 0 1 70.34.29z" />
    <path
      d="m13.41 55.92a42.6 42.6 0 0 0 9.1 26.38l-8.62 8.62a54.91 54.91 0 0 1 .29-70.35l8.61 8.61a42.57 42.57 0 0 0 -9.38 26.74z" />
    <path d="m91.21 98.24a54.92 54.92 0 0 1 -70.36-.29l8.61-8.61a42.8 42.8 0 0 0 53.11.28z" />
  </g>
</svg>
