<svg width="100" height="100" viewBox="0 0 100 100" fill="none" xmlns="http://www.w3.org/2000/svg">
<path d="M67.685 67.012V54.496C70.724 51.999 73.243 48.842 74.988 45.333C76.917 41.458 77.894 37.282 77.894 32.923C77.894 25.472 74.992 18.467 69.725 13.199C64.456 7.93201 57.451 5.03101 50 5.03101C42.55 5.03101 35.545 7.93201 30.277 13.2C25.008 18.469 22.107 25.473 22.107 32.924C22.107 37.283 23.085 41.459 25.013 45.334C26.759 48.843 29.277 52 32.316 54.497V67.013L24.699 87.943C24.534 88.396 24.639 88.901 24.97 89.251C25.3 89.599 25.799 89.73 26.259 89.591L34.671 87.021L39.463 94.397C39.724 94.799 40.192 95.02 40.669 94.964C41.147 94.91 41.552 94.59 41.716 94.139L50 71.377L58.284 94.137C58.449 94.588 58.853 94.908 59.331 94.962C59.38 94.968 59.428 94.97 59.476 94.97C59.901 94.97 60.302 94.756 60.538 94.395L65.33 87.019L73.742 89.589C74.201 89.729 74.701 89.597 75.031 89.249C75.362 88.899 75.469 88.395 75.302 87.941L67.685 67.012ZM34.851 65.993V55.134C39.281 58.169 44.515 59.804 50 59.804C55.487 59.804 60.721 58.169 65.15 55.134V65.993H34.851ZM24.649 32.276C24.65 32.245 24.652 32.213 24.653 32.182C24.659 31.994 24.665 31.808 24.674 31.622C24.674 31.616 24.675 31.608 24.675 31.602C25.342 18.669 35.745 8.26601 48.678 7.59901C48.685 7.59801 48.693 7.59801 48.699 7.59801C48.885 7.58801 49.071 7.58201 49.258 7.57701C49.289 7.57601 49.321 7.57401 49.352 7.57301C49.568 7.56701 49.784 7.56401 50 7.56401C50.217 7.56401 50.433 7.56701 50.647 7.57201C50.679 7.57301 50.71 7.57501 50.742 7.57601C50.929 7.58201 51.116 7.58801 51.302 7.59701C51.309 7.59701 51.316 7.59701 51.323 7.59801C64.258 8.26501 74.659 18.668 75.326 31.601C75.326 31.607 75.327 31.615 75.327 31.621C75.336 31.808 75.343 31.994 75.348 32.181C75.35 32.211 75.352 32.244 75.352 32.275C75.358 32.491 75.36 32.706 75.36 32.923C75.36 33.152 75.357 33.381 75.351 33.611C75.348 33.683 75.344 33.755 75.341 33.828C75.336 33.986 75.33 34.143 75.322 34.3C75.317 34.384 75.312 34.466 75.306 34.55C75.296 34.697 75.286 34.844 75.275 34.991C75.268 35.075 75.26 35.158 75.254 35.242C75.241 35.391 75.225 35.539 75.21 35.687C75.201 35.766 75.192 35.844 75.183 35.924C75.165 36.084 75.144 36.244 75.122 36.404C75.113 36.469 75.104 36.534 75.096 36.597C75.066 36.804 75.034 37.011 74.999 37.216C74.996 37.234 74.994 37.25 74.99 37.267C74.951 37.496 74.908 37.723 74.863 37.949C74.855 37.988 74.846 38.027 74.839 38.066C74.802 38.248 74.764 38.428 74.723 38.608C74.705 38.679 74.689 38.75 74.672 38.822C74.65 38.915 74.626 39.007 74.604 39.099C74.585 39.169 74.57 39.238 74.551 39.307C74.534 39.374 74.516 39.441 74.499 39.509C74.493 39.529 74.488 39.549 74.48 39.569C74.433 39.746 74.385 39.922 74.334 40.098C74.328 40.113 74.324 40.128 74.319 40.144C73.908 41.532 73.373 42.886 72.718 44.204C71.36 46.931 69.49 49.425 67.247 51.511C67.245 51.513 67.243 51.515 67.241 51.517C66.724 51.996 66.188 52.455 65.634 52.89L65.441 53.042C65.439 53.044 65.438 53.044 65.437 53.046C61.029 56.442 55.656 58.281 49.999 58.281C44.344 58.281 38.971 56.441 34.563 53.046C34.561 53.044 34.56 53.044 34.558 53.042L34.364 52.89C33.81 52.455 33.274 51.996 32.758 51.517C32.755 51.515 32.753 51.513 32.751 51.511C30.509 49.425 28.64 46.931 27.281 44.204C26.627 42.888 26.093 41.533 25.679 40.144C25.675 40.128 25.67 40.113 25.665 40.097C25.614 39.922 25.565 39.747 25.518 39.571C25.512 39.55 25.507 39.53 25.501 39.508C25.482 39.442 25.466 39.374 25.448 39.307C25.429 39.238 25.414 39.17 25.396 39.101C25.373 39.008 25.349 38.915 25.327 38.822C25.31 38.75 25.293 38.679 25.277 38.608C25.235 38.428 25.197 38.248 25.16 38.066C25.152 38.027 25.143 37.988 25.136 37.95C25.091 37.723 25.048 37.495 25.009 37.267C25.006 37.249 25.003 37.233 25 37.216C24.966 37.011 24.934 36.804 24.903 36.597C24.894 36.534 24.885 36.469 24.877 36.404C24.856 36.244 24.835 36.084 24.815 35.924C24.806 35.844 24.797 35.766 24.79 35.688C24.774 35.539 24.759 35.391 24.745 35.242C24.738 35.159 24.73 35.075 24.724 34.991C24.712 34.844 24.703 34.697 24.693 34.55C24.688 34.467 24.682 34.384 24.678 34.3C24.669 34.143 24.663 33.986 24.658 33.828C24.655 33.755 24.651 33.683 24.649 33.611C24.643 33.381 24.639 33.152 24.639 32.923C24.642 32.707 24.645 32.492 24.649 32.276ZM40.205 90.883L36.276 84.837C35.968 84.363 35.383 84.151 34.843 84.316L27.947 86.421L34.773 67.668C34.792 67.618 34.805 67.565 34.817 67.511H48.71L40.205 90.883ZM65.158 84.316C64.616 84.151 64.032 84.363 63.724 84.837L59.795 90.883L51.29 67.512H65.182C65.196 67.567 65.208 67.619 65.228 67.671L72.052 86.422L65.158 84.316Z" fill="#EDEDED"/>
<path d="M50 52.201C60.63 52.201 69.277 43.553 69.277 32.924C69.277 22.294 60.63 13.647 50 13.647C39.371 13.647 30.724 22.294 30.724 32.924C30.724 43.553 39.371 52.201 50 52.201ZM50 15.167C59.791 15.167 67.757 23.132 67.757 32.923C67.757 42.714 59.791 50.679 50 50.679C40.21 50.679 32.244 42.713 32.244 32.923C32.244 23.133 40.21 15.167 50 15.167Z" fill="#EDEDED"/>
<path d="M38.423 38.203C38.514 38.203 38.608 38.186 38.699 38.15C39.09 37.998 39.283 37.556 39.131 37.165C38.08 34.478 38.06 31.514 39.071 28.818C40.167 25.904 42.335 23.588 45.178 22.299C48.02 21.008 51.192 20.9 54.106 21.995C54.5 22.143 54.937 21.944 55.085 21.551C55.233 21.158 55.034 20.72 54.641 20.572C51.347 19.334 47.763 19.455 44.55 20.914C41.337 22.372 38.886 24.989 37.649 28.284C36.503 31.331 36.528 34.682 37.714 37.72C37.831 38.02 38.118 38.203 38.423 38.203Z" fill="#EDEDED"/>
</svg>
