<?xml version="1.0" encoding="utf-8"?>
<!-- Generator: Adobe Illustrator 21.0.2, SVG Export Plug-In . SVG Version: 6.00 Build 0)  -->
<svg version="1.1" id="Layer_1" xmlns="http://www.w3.org/2000/svg" xmlns:xlink="http://www.w3.org/1999/xlink" x="0px" y="0px"
	 viewBox="0 0 100 100" style="enable-background:new 0 0 100 100;" xml:space="preserve">
<path d="M93,6H7C5.9,6,5,6.9,5,8v28v28v28c0,1.1,0.9,2,2,2h86c1.1,0,2-0.9,2-2V64V36V8C95,6.9,94.1,6,93,6z M9,38h82v24H9V38z M9,10
	h82v24H9V10z M91,90H9V66h82V90z M15,78c0-1.1,0.9-2,2-2h52c1.1,0,2,0.9,2,2s-0.9,2-2,2H17C15.9,80,15,79.1,15,78z M77,78
	c0-1.1,0.9-2,2-2h4c1.1,0,2,0.9,2,2s-0.9,2-2,2h-4C77.9,80,77,79.1,77,78z M71,50c0,1.1-0.9,2-2,2H17c-1.1,0-2-0.9-2-2s0.9-2,2-2h52
	C70.1,48,71,48.9,71,50z M85,50c0,1.1-0.9,2-2,2h-4c-1.1,0-2-0.9-2-2s0.9-2,2-2h4C84.1,48,85,48.9,85,50z M71,22c0,1.1-0.9,2-2,2H17
	c-1.1,0-2-0.9-2-2s0.9-2,2-2h52C70.1,20,71,20.9,71,22z M85,22c0,1.1-0.9,2-2,2h-4c-1.1,0-2-0.9-2-2s0.9-2,2-2h4
	C84.1,20,85,20.9,85,22z"/>
</svg>
