<svg fill="none" xmlns="http://www.w3.org/2000/svg" viewBox="0 0 15 14">
  <path d="M1.16578 4.96649a.69321.69321 0 0 0 .69322-.69322V2.19361a.69321.69321 0 0 1 .69322-.69322h2.07966A.6932.6932 0 0 0 5.3251.80717a.69324.69324 0 0 0-.69322-.69322H2.55222A2.07965 2.07965 0 0 0 .47256 2.19361v2.07966a.6932.6932 0 0 0 .69322.69322Zm3.4661 7.62541H2.55222a.69318.69318 0 0 1-.69322-.6932V9.81904a.69322.69322 0 0 0-1.38644 0v2.07966c0 .5516.2191 1.0805.60912 1.4705a2.07936 2.07936 0 0 0 1.47054.6092h2.07966a.6933.6933 0 0 0 .69322-.6933.69314.69314 0 0 0-.20304-.4901.6933.6933 0 0 0-.49018-.2031Zm2.77288-8.31863a2.77289 2.77289 0 1 0 2.30557 4.31342 2.773 2.773 0 0 0 .46727-1.54053 2.77284 2.77284 0 0 0-2.77284-2.77289Zm0 4.15933a1.38648 1.38648 0 0 1-.98036-2.36681 1.38647 1.38647 0 0 1 2.3668.98037A1.38645 1.38645 0 0 1 7.40476 8.4326ZM12.2573.11395h-2.0797a.6932.6932 0 0 0-.69318.69322.69322.69322 0 0 0 .69318.69322h2.0797a.6932.6932 0 0 1 .6932.69322v2.07966c0 .18386.0731.36018.2031.49018a.69315.69315 0 0 0 .9803 0c.13-.13.2031-.30632.2031-.49018V2.19361a2.07936 2.07936 0 0 0-.6092-1.47054 2.07947 2.07947 0 0 0-1.4705-.60912Zm1.3864 9.01187a.6931.6931 0 0 0-.4901.20304.69328.69328 0 0 0-.2031.49018v2.07966c0 .1839-.073.3602-.203.4902s-.3063.203-.4902.203h-2.0797a.69327.69327 0 0 0-.49014.2031.69314.69314 0 0 0 0 .9803c.13.13.30633.2031.49014.2031h2.0797c.5516 0 1.0805-.2191 1.4705-.6092.3901-.39.6092-.9189.6092-1.4705V9.81904a.69328.69328 0 0 0-.2031-.49018.69315.69315 0 0 0-.4902-.20304Z" fill="silver"/>
</svg>
