<svg width="124" height="93" viewBox="0 0 124 93" fill="none" xmlns="http://www.w3.org/2000/svg">
<g clip-path="url(#clip0_430_2109)">
<path fill-rule="evenodd" clip-rule="evenodd" d="M37.47 0H43.25C44.5506 0.00526562 45.7964 0.524258 46.7161 1.44392C47.6357 2.36359 48.1547 3.60941 48.16 4.91V10.26C50.763 11.038 53.2514 12.1578 55.56 13.59L59.56 9.59C60.0183 9.12801 60.5635 8.76132 61.1642 8.51109C61.7649 8.26085 62.4093 8.13202 63.06 8.13202C63.7107 8.13202 64.3551 8.26085 64.9558 8.51109C65.5565 8.76132 66.1017 9.12801 66.56 9.59L70.56 13.7C71.4772 14.6219 71.9921 15.8695 71.9921 17.17C71.9921 18.4705 71.4772 19.7181 70.56 20.64L66.29 24.92C67.512 27.1542 68.4493 29.5327 69.08 32H75.24C76.5423 32.0026 77.7907 32.5205 78.7125 33.4404C79.6343 34.3604 80.1547 35.6077 80.16 36.91V42.69C80.1547 43.9923 79.6343 45.2396 78.7125 46.1596C77.7907 47.0795 76.5423 47.5974 75.24 47.6H69.02C68.3714 50.0419 67.4207 52.3934 66.19 54.6L70.56 59C71.022 59.4583 71.3887 60.0035 71.6389 60.6042C71.8891 61.2049 72.018 61.8493 72.018 62.5C72.018 63.1507 71.8891 63.7951 71.6389 64.3958C71.3887 64.9965 71.022 65.5417 70.56 66L66.46 70C66.0017 70.462 65.4565 70.8287 64.8558 71.0789C64.2551 71.3291 63.6107 71.458 62.96 71.458C62.3093 71.458 61.6649 71.3291 61.0642 71.0789C60.4635 70.8287 59.9183 70.462 59.46 70L55.35 65.89C53.0886 67.2842 50.6547 68.3768 48.11 69.14V74.7C48.1074 76.0023 47.5895 77.2507 46.6696 78.1725C45.7496 79.0944 44.5023 79.6147 43.2 79.62H37.47C36.1642 79.6147 34.9139 79.0916 33.9934 78.1654C33.0728 77.2393 32.5573 75.9858 32.56 74.68V69.68C29.7662 69.0589 27.0733 68.0491 24.56 66.68L21.2 70C20.2781 70.9172 19.0305 71.4321 17.73 71.4321C16.4295 71.4321 15.1819 70.9172 14.26 70L10.17 65.9C9.70801 65.4417 9.34132 64.8965 9.09108 64.2958C8.84085 63.6951 8.71201 63.0507 8.71201 62.4C8.71201 61.7493 8.84085 61.1049 9.09108 60.5042C9.34132 59.9035 9.70801 59.3583 10.17 58.9L13.23 55.84C11.6352 53.2845 10.4255 50.5081 9.64 47.6H5.47C4.16941 47.5947 2.92359 47.0757 2.00392 46.1561C1.08426 45.2364 0.565263 43.9906 0.559998 42.69L0.559998 36.91C0.565263 35.6094 1.08426 34.3636 2.00392 33.4439C2.92359 32.5243 4.16941 32.0053 5.47 32H9.56C10.3272 29.0449 11.5304 26.2205 13.13 23.62L10.13 20.62C9.21279 19.6981 8.69791 18.4505 8.69791 17.15C8.69791 15.8495 9.21279 14.6019 10.13 13.68L14.26 9.61C15.1819 8.69279 16.4295 8.17791 17.73 8.17791C19.0305 8.17791 20.2781 8.69279 21.2 9.61L24.42 12.83C26.9708 11.4097 29.712 10.3624 32.56 9.72V4.91C32.5653 3.60941 33.0843 2.36359 34.0039 1.44392C34.9236 0.524258 36.1694 0.00526562 37.47 0V0ZM94.76 47.52L98.03 46.91C98.7672 46.7757 99.5275 46.9393 100.144 47.3648C100.761 47.7904 101.184 48.4432 101.32 49.18L101.88 52.18C103.432 52.3494 104.955 52.7226 106.41 53.29L108.24 50.62C108.667 50.005 109.319 49.5832 110.055 49.4465C110.791 49.3098 111.551 49.4692 112.17 49.89L114.91 51.78C115.525 52.2067 115.947 52.8589 116.083 53.5948C116.22 54.3308 116.061 55.0909 115.64 55.71L113.64 58.58C114.573 59.7115 115.356 60.9584 115.97 62.29L119.46 61.64C120.198 61.5083 120.958 61.6727 121.576 62.0976C122.194 62.5225 122.619 63.1736 122.76 63.91L123.36 67.18C123.428 67.5444 123.423 67.9187 123.347 68.2814C123.27 68.6441 123.122 68.988 122.912 69.2936C122.702 69.5992 122.434 69.8604 122.123 70.0622C121.812 70.2641 121.465 70.4027 121.1 70.47L117.57 71.13C117.461 72.5802 117.172 74.0112 116.71 75.39L119.62 77.39C120.238 77.8168 120.662 78.4709 120.798 79.2093C120.935 79.9477 120.774 80.7102 120.35 81.33L118.47 84.07C118.044 84.6856 117.39 85.107 116.654 85.242C115.917 85.3769 115.157 85.2144 114.54 84.79L111.78 82.9C110.644 83.9254 109.38 84.7993 108.02 85.5L108.6 88.65C108.674 89.0164 108.676 89.394 108.604 89.7609C108.532 90.1278 108.388 90.4769 108.181 90.7881C107.974 91.0994 107.707 91.3667 107.396 91.5746C107.085 91.7826 106.737 91.9271 106.37 92L103.1 92.61C102.362 92.7417 101.602 92.5774 100.984 92.1525C100.366 91.7276 99.9409 91.0764 99.8 90.34L99.28 87.49C97.6303 87.4307 95.9974 87.1378 94.43 86.62L92.88 88.87C92.4533 89.485 91.8011 89.9068 91.0652 90.0435C90.3292 90.1802 89.5691 90.0208 88.95 89.6L86.21 87.71C85.595 87.2833 85.1732 86.6311 85.0365 85.8952C84.8998 85.1592 85.0592 84.3991 85.48 83.78L86.89 81.78C85.7166 80.4901 84.7395 79.0345 83.99 77.46L81.63 77.89C81.2655 77.958 80.8913 77.9534 80.5286 77.8765C80.1659 77.7997 79.822 77.6521 79.5164 77.4422C79.2108 77.2323 78.9496 76.9642 78.7478 76.6532C78.5459 76.3423 78.4073 75.9946 78.34 75.63L77.73 72.36C77.6532 71.9899 77.6514 71.6082 77.7246 71.2374C77.7977 70.8666 77.9445 70.5142 78.156 70.201C78.3676 69.8878 78.6398 69.6202 78.9565 69.4139C79.2732 69.2077 79.628 69.0669 80 69L82.32 68.56C82.4472 66.809 82.8348 65.0867 83.47 63.45L81.47 62.08C80.8543 61.6515 80.4323 60.9975 80.2957 60.2599C80.159 59.5224 80.3187 58.7606 80.74 58.14L82.63 55.4C83.055 54.7828 83.7073 54.3594 84.4441 54.2225C85.1808 54.0857 85.9418 54.2466 86.56 54.67L88.71 56.15C90.0068 55.0778 91.4517 54.1987 93 53.54L92.49 50.81C92.3585 50.0731 92.5231 49.3141 92.9482 48.698C93.3733 48.0819 94.0244 47.6586 94.76 47.52V47.52ZM99.01 61.34C100.671 61.0337 102.386 61.2263 103.938 61.8935C105.49 62.5608 106.809 63.6728 107.73 65.0892C108.65 66.5057 109.13 68.163 109.11 69.8521C109.089 71.5413 108.569 73.1864 107.614 74.5801C106.66 75.9737 105.314 77.0533 103.746 77.6827C102.178 78.312 100.459 78.4629 98.8061 78.1163C97.1528 77.7697 95.6392 76.9411 94.4564 75.7351C93.2736 74.5291 92.4745 72.9997 92.16 71.34C91.9503 70.2334 91.9613 69.0962 92.1925 67.9938C92.4236 66.8915 92.8702 65.8456 93.5067 64.9164C94.1433 63.9872 94.9571 63.1929 95.9015 62.5791C96.846 61.9654 97.9023 61.5443 99.01 61.34V61.34ZM40.36 25C43.3013 24.9901 46.1793 25.8539 48.629 27.4818C51.0787 29.1098 52.9898 31.4285 54.12 34.144C55.2501 36.8595 55.5484 39.8495 54.977 42.7348C54.4056 45.62 52.9903 48.2706 50.9104 50.3505C48.8306 52.4303 46.18 53.8456 43.2948 54.417C40.4095 54.9884 37.4195 54.6901 34.704 53.56C31.9885 52.4298 29.6698 50.5187 28.0418 48.069C26.4139 45.6193 25.5501 42.7413 25.56 39.8C25.5706 35.878 27.1332 32.1197 29.9065 29.3465C32.6797 26.5732 36.438 25.0106 40.36 25V25Z" fill="#EDEDED"/>
</g>
<defs>
<clipPath id="clip0_430_2109">
<rect width="122.88" height="92.62" fill="white" transform="translate(0.559998)"/>
</clipPath>
</defs>
</svg>
