<svg xmlns="http://www.w3.org/2000/svg" xmlns:xlink="http://www.w3.org/1999/xlink" version="1.1" x="0px" y="0px" viewBox="0 0 100 100" enable-background="new 0 0 100 100" xml:space="preserve">
  <rect x="5" y="4.998" fill="none" width="89.999" height="90.001"></rect>
  <path d="M75.55,8.005C68.708,6.078,59.635,5.018,50,5.018S31.291,6.078,24.45,8.005c-7.411,2.087-11.328,4.946-11.328,8.267v67.455  c0,3.321,3.917,6.18,11.328,8.268C31.291,93.919,40.364,94.98,50,94.98s18.708-1.062,25.55-2.986  c7.41-2.088,11.327-4.946,11.327-8.268V16.271C86.877,12.951,82.96,10.092,75.55,8.005z M84.461,16.992  c-0.688,2.014-4.199,4.068-9.688,5.614c-6.607,1.86-15.406,2.886-24.773,2.886c-9.367,0-18.166-1.025-24.773-2.886  c-5.49-1.546-9-3.601-9.688-5.615v-0.72c0-1.569,2.513-3.954,9.565-5.94C31.739,8.463,40.579,7.435,50,7.435  c9.419,0,18.262,1.028,24.895,2.896c7.054,1.986,9.566,4.371,9.566,5.94V16.992z M17.06,20.746c1.842,1.227,4.458,2.322,7.773,3.256  c6.732,1.896,15.67,2.94,25.167,2.94c6.118,0,12.004-0.435,17.217-1.25v15.512C62.016,42.021,56.129,42.456,50,42.456  c-9.463,0-18.351-1.035-25.025-2.915c-4.904-1.382-8.247-3.165-9.436-4.968V19.532C15.962,19.947,16.469,20.353,17.06,20.746z   M16.731,37.649c1.86,1.238,4.501,2.344,7.85,3.287c6.8,1.915,15.827,2.97,25.419,2.97c6.112,0,11.995-0.429,17.217-1.235v15.397  C62.016,58.885,56.129,59.32,50,59.32c-9.463,0-18.351-1.035-25.025-2.915c-4.904-1.382-8.247-3.165-9.436-4.967V36.741  C15.889,37.051,16.287,37.353,16.731,37.649z M68.184,42.517c2.607-0.433,5.038-0.961,7.235-1.58  c3.348-0.943,5.989-2.049,7.849-3.287c0.446-0.297,0.843-0.599,1.193-0.908v14.697c-1.189,1.802-4.531,3.585-9.437,4.967  c-2.081,0.586-4.378,1.09-6.841,1.506V42.517z M75.024,39.541c-2.081,0.586-4.378,1.09-6.841,1.507V25.536  c2.514-0.423,4.858-0.936,6.982-1.534c3.315-0.934,5.931-2.029,7.772-3.256c0.592-0.394,1.1-0.799,1.522-1.214v15.041  C83.271,36.376,79.93,38.159,75.024,39.541z M15.539,53.605c0.35,0.309,0.748,0.611,1.192,0.907c1.86,1.238,4.501,2.345,7.85,3.287  c6.8,1.915,15.827,2.971,25.419,2.971c6.112,0,11.995-0.429,17.217-1.236v15.398C62.016,75.749,56.129,76.184,50,76.184  c-9.463,0-18.351-1.036-25.025-2.915c-4.904-1.381-8.247-3.164-9.436-4.968V53.605z M68.184,59.38  c2.607-0.432,5.038-0.961,7.235-1.58c3.348-0.942,5.989-2.049,7.849-3.287c0.446-0.296,0.843-0.599,1.193-0.907v14.695  c-1.189,1.804-4.531,3.587-9.437,4.968c-2.081,0.587-4.378,1.091-6.841,1.507V59.38z M25.104,89.666  c-7.053-1.986-9.565-4.37-9.565-5.939V70.47c0.35,0.309,0.748,0.61,1.192,0.907c1.86,1.238,4.501,2.344,7.85,3.287  c6.8,1.915,15.827,2.97,25.419,2.97c6.112,0,11.995-0.429,17.217-1.234v14.907C62.023,92.128,56.135,92.563,50,92.563  C40.579,92.563,31.739,91.534,25.104,89.666z M74.895,89.666c-2.043,0.576-4.296,1.072-6.711,1.482V76.244  c2.607-0.434,5.038-0.961,7.235-1.58c3.348-0.943,5.989-2.049,7.849-3.287c0.446-0.297,0.843-0.599,1.193-0.907v13.257  C84.461,85.296,81.948,87.68,74.895,89.666z"></path>
</svg>
